# Blender v2.75 (sub 0) OBJ File: ''
# www.blender.org
mtllib rocket.mtl

v -0.019134 -0.046194 -0.610000
v 0.000000 0.000000 -0.710000
v -0.009754 -0.049039 -0.610000
v 0.000000 -0.050000 -0.610000
v 0.009755 -0.049039 -0.610000
v -0.027778 -0.041574 -0.610000
v -0.035355 -0.035355 -0.610000
v -0.041573 -0.027779 -0.610000
v -0.046194 -0.019134 -0.610000
v -0.049039 -0.009755 -0.610000
v -0.050000 -0.000000 -0.610000
v -0.049039 0.009754 -0.610000
v -0.046194 0.019134 -0.610000
v -0.041574 0.027778 -0.610000
v -0.035355 0.035355 -0.610000
v -0.027779 0.041573 -0.610000
v -0.019134 0.046194 -0.610000
v -0.009755 0.049039 -0.610000
v -0.000000 0.050000 -0.610000
v 0.009755 0.049039 -0.610000
v 0.019134 0.046194 -0.610000
v 0.027779 0.041573 -0.610000
v 0.035355 0.035355 -0.610000
v 0.041573 0.027779 -0.610000
v 0.046194 0.019134 -0.610000
v 0.049039 0.009755 -0.610000
v 0.050000 -0.000000 -0.610000
v 0.049039 -0.009755 -0.610000
v 0.046194 -0.019134 -0.610000
v 0.041573 -0.027779 -0.610000
v 0.035355 -0.035355 -0.610000
v 0.027779 -0.041573 -0.610000
v 0.019134 -0.046194 -0.610000
v 0.000000 -0.050000 -0.110000
v 0.000000 -0.050000 -0.610000
v 0.009755 -0.049039 -0.610000
v 0.009755 -0.049039 -0.110000
v 0.019134 -0.046194 -0.610000
v 0.019134 -0.046194 -0.110000
v 0.027779 -0.041573 -0.610000
v 0.027779 -0.041573 -0.110000
v 0.035355 -0.035355 -0.610000
v 0.035355 -0.035355 -0.110000
v 0.041573 -0.027779 -0.610000
v 0.041573 -0.027779 -0.110000
v 0.046194 -0.019134 -0.610000
v 0.046194 -0.019134 -0.110000
v 0.049039 -0.009755 -0.610000
v 0.049039 -0.009755 -0.110000
v 0.050000 -0.000000 -0.610000
v 0.050000 -0.000000 -0.110000
v 0.049039 0.009755 -0.610000
v 0.049039 0.009755 -0.110000
v 0.046194 0.019134 -0.610000
v 0.046194 0.019134 -0.110000
v 0.041573 0.027779 -0.610000
v 0.041573 0.027779 -0.110000
v 0.035355 0.035355 -0.610000
v 0.035355 0.035355 -0.110000
v 0.027779 0.041573 -0.610000
v 0.027779 0.041573 -0.110000
v 0.019134 0.046194 -0.610000
v 0.019134 0.046194 -0.110000
v 0.009755 0.049039 -0.610000
v 0.009755 0.049039 -0.110000
v -0.000000 0.050000 -0.610000
v -0.000000 0.050000 -0.110000
v -0.009755 0.049039 -0.610000
v -0.009755 0.049039 -0.110000
v -0.019134 0.046194 -0.610000
v -0.019134 0.046194 -0.110000
v -0.027779 0.041573 -0.610000
v -0.027779 0.041573 -0.110000
v -0.035355 0.035355 -0.610000
v -0.035355 0.035355 -0.110000
v -0.041574 0.027778 -0.610000
v -0.041574 0.027778 -0.110000
v -0.046194 0.019134 -0.610000
v -0.046194 0.019134 -0.110000
v -0.049039 0.009754 -0.610000
v -0.049039 0.009754 -0.110000
v -0.050000 -0.000000 -0.610000
v -0.050000 -0.000000 -0.110000
v -0.049039 -0.009755 -0.610000
v -0.049039 -0.009755 -0.110000
v -0.046194 -0.019134 -0.610000
v -0.046194 -0.019134 -0.110000
v -0.041573 -0.027779 -0.610000
v -0.041573 -0.027779 -0.110000
v -0.035355 -0.035355 -0.610000
v -0.035355 -0.035355 -0.110000
v -0.027778 -0.041574 -0.610000
v -0.027778 -0.041574 -0.110000
v -0.019134 -0.046194 -0.610000
v -0.019134 -0.046194 -0.110000
v -0.009754 -0.049039 -0.610000
v -0.009754 -0.049039 -0.110000
v 0.050000 -0.000000 -0.001034
v 0.049039 0.009754 -0.001034
v 0.035355 -0.035355 -0.001034
v 0.041573 -0.027779 -0.001034
v 0.049039 -0.009755 -0.001034
v -0.027779 0.041573 -0.001034
v -0.035355 0.035355 -0.001034
v 0.035355 0.035355 -0.001034
v 0.027779 0.041573 -0.001034
v -0.046194 0.019134 -0.001034
v -0.049039 0.009754 -0.001034
v 0.027779 -0.041573 -0.001034
v -0.041574 0.027778 -0.001034
v 0.041573 0.027778 -0.001034
v -0.046194 -0.019134 -0.001034
v -0.041573 -0.027779 -0.001034
v 0.046194 -0.019134 -0.001034
v -0.000000 -0.050000 -0.001034
v -0.009754 -0.049039 -0.001034
v -0.049039 -0.009755 -0.001034
v -0.019134 0.046194 -0.001034
v 0.019134 0.046194 -0.001034
v -0.050000 -0.000000 -0.001034
v -0.009755 0.049039 -0.001034
v 0.009755 0.049039 -0.001034
v -0.000000 0.050000 -0.001034
v 0.009755 -0.049039 -0.001034
v 0.019134 -0.046194 -0.001034
v -0.035355 -0.035355 -0.001034
v -0.027778 -0.041574 -0.001034
v -0.019134 -0.046194 -0.001034
v 0.046194 0.019134 -0.001034
v 0.000000 -0.050000 -0.110000
v -0.009754 -0.049039 -0.110000
v 0.009755 -0.049039 -0.110000
v -0.000000 -0.050000 -0.001034
v -0.009754 -0.049039 -0.001034
v 0.009755 -0.049039 -0.001034
v 0.001804 -0.124822 -0.036352
v -0.001123 -0.124534 -0.036352
v 0.004730 -0.124534 -0.036352
v 0.001804 -0.124822 -0.003662
v -0.001123 -0.124534 -0.003662
v 0.004730 -0.124534 -0.003662
v -0.124552 -0.000000 -0.043720
v -0.124263 -0.002926 -0.043720
v -0.124263 0.002926 -0.043720
v -0.124552 -0.000000 -0.011030
v -0.124263 -0.002926 -0.011030
v -0.124263 0.002926 -0.011030
v -0.000000 0.124552 -0.043720
v -0.002926 0.124263 -0.043720
v 0.002926 0.124263 -0.043720
v -0.000000 0.124552 -0.011030
v -0.002926 0.124263 -0.011030
v 0.002926 0.124263 -0.011030
v 0.124552 -0.000000 -0.043720
v 0.124263 0.002926 -0.043720
v 0.124263 -0.002926 -0.043720
v 0.124552 -0.000000 -0.011030
v 0.124263 0.002926 -0.011030
v 0.124263 -0.002926 -0.011030
vn -0.259900 -0.856700 -0.445500
vn 0.087800 -0.891000 -0.445500
vn -0.422000 -0.789600 -0.445500
vn -0.568000 -0.692100 -0.445500
vn -0.692100 -0.568000 -0.445500
vn -0.789600 -0.422000 -0.445500
vn -0.856700 -0.259900 -0.445500
vn -0.891000 -0.087800 -0.445500
vn -0.891000 0.087800 -0.445500
vn -0.856700 0.259900 -0.445500
vn -0.789600 0.422000 -0.445500
vn -0.692100 0.568000 -0.445500
vn -0.568000 0.692100 -0.445500
vn -0.422000 0.789600 -0.445500
vn -0.259900 0.856700 -0.445500
vn -0.087800 0.891000 -0.445500
vn 0.087800 0.891000 -0.445500
vn 0.259900 0.856700 -0.445500
vn 0.422000 0.789600 -0.445500
vn 0.568000 0.692100 -0.445500
vn 0.692100 0.568000 -0.445500
vn 0.789600 0.422000 -0.445500
vn 0.856700 0.259900 -0.445500
vn 0.891000 0.087800 -0.445500
vn 0.891000 -0.087800 -0.445500
vn 0.856700 -0.259900 -0.445500
vn 0.789600 -0.422000 -0.445500
vn 0.692100 -0.568000 -0.445500
vn 0.568000 -0.692100 -0.445500
vn 0.422000 -0.789600 -0.445500
vn -0.087800 -0.891000 -0.445500
vn 0.259900 -0.856700 -0.445500
vn 0.000000 0.000000 1.000000
vn 0.098000 -0.995200 0.000000
vn 0.290300 -0.956900 0.000000
vn 0.471400 -0.881900 0.000000
vn 0.634400 -0.773000 0.000000
vn 0.773000 -0.634400 0.000000
vn 0.881900 -0.471400 0.000000
vn 0.956900 -0.290300 0.000000
vn 0.995200 -0.098000 0.000000
vn 0.995200 0.098000 0.000000
vn 0.956900 0.290300 0.000000
vn 0.881900 0.471400 0.000000
vn 0.773000 0.634400 0.000000
vn 0.634400 0.773000 0.000000
vn 0.471400 0.881900 0.000000
vn 0.290300 0.956900 0.000000
vn 0.098000 0.995200 0.000000
vn -0.098000 0.995200 0.000000
vn -0.290300 0.956900 0.000000
vn -0.471400 0.881900 0.000000
vn -0.634400 0.773000 0.000000
vn -0.773000 0.634400 0.000000
vn -0.881900 0.471400 0.000000
vn -0.956900 0.290300 0.000000
vn -0.995200 0.098000 0.000000
vn -0.995200 -0.098000 0.000000
vn -0.956900 -0.290300 0.000000
vn -0.881900 -0.471400 0.000000
vn -0.773000 -0.634400 0.000000
vn -0.634400 -0.773000 0.000000
vn -0.471400 -0.881900 0.000000
vn -0.000000 0.000000 -1.000000
vn -0.098000 -0.995200 0.000000
vn -0.290300 -0.956900 0.000000
vn 0.090400 0.995900 0.000000
vn -0.663000 -0.065300 -0.745800
vn 0.000000 0.000000 0.000000
vn -0.065300 0.663000 -0.745800
vn 0.663000 0.065300 -0.745800
vn 0.995900 0.090400 0.000000
vn -0.090400 0.995900 0.000000
vn 0.003400 -0.035000 0.999400
vn -0.993500 -0.113600 -0.000000
vn 0.068800 -0.699000 -0.711800
vn 0.997800 -0.066400 -0.000000
vn -0.003500 -0.035200 0.999400
vn -0.069000 -0.700700 -0.710100
vn -0.663000 0.065300 -0.745800
vn -0.090400 -0.995900 -0.000000
vn -0.132900 -0.013100 0.991000
vn -0.132900 0.013100 0.991000
vn -0.013100 0.132900 0.991000
vn -0.995900 0.090400 0.000000
vn 0.013100 0.132900 0.991000
vn 0.065300 0.663000 -0.745800
vn 0.090400 -0.995900 -0.000000
vn 0.663000 -0.065300 -0.745800
vn 0.132900 -0.013100 0.991000
vn 0.132900 0.013100 0.991000
usemtl Material.002
s off
f 1//1 2//1 3//1
f 4//2 2//2 5//2
f 6//3 2//3 1//3
f 7//4 2//4 6//4
f 8//5 2//5 7//5
f 9//6 2//6 8//6
f 10//7 2//7 9//7
f 11//8 2//8 10//8
f 12//9 2//9 11//9
f 13//10 2//10 12//10
f 14//11 2//11 13//11
f 15//12 2//12 14//12
f 16//13 2//13 15//13
f 17//14 2//14 16//14
f 18//15 2//15 17//15
f 19//16 2//16 18//16
f 20//17 2//17 19//17
f 21//18 2//18 20//18
f 22//19 2//19 21//19
f 23//20 2//20 22//20
f 24//21 2//21 23//21
f 25//22 2//22 24//22
f 26//23 2//23 25//23
f 27//24 2//24 26//24
f 28//25 2//25 27//25
f 29//26 2//26 28//26
f 30//27 2//27 29//27
f 31//28 2//28 30//28
f 32//29 2//29 31//29
f 33//30 2//30 32//30
f 3//31 2//31 4//31
f 5//32 2//32 33//32
f 4//33 5//33 33//33 32//33 31//33 30//33 29//33 28//33 27//33 26//33 25//33 24//33 23//33 22//33 21//33 20//33 19//33 18//33 17//33 16//33 15//33 14//33 13//33 12//33 11//33 10//33 9//33 8//33 7//33 6//33 1//33 3//33
f 34//34 35//34 36//34 37//34
f 37//35 36//35 38//35 39//35
f 39//36 38//36 40//36 41//36
f 41//37 40//37 42//37 43//37
f 43//38 42//38 44//38 45//38
f 45//39 44//39 46//39 47//39
f 47//40 46//40 48//40 49//40
f 49//41 48//41 50//41 51//41
f 51//42 50//42 52//42 53//42
f 53//43 52//43 54//43 55//43
f 55//44 54//44 56//44 57//44
f 57//45 56//45 58//45 59//45
f 59//46 58//46 60//46 61//46
f 61//47 60//47 62//47 63//47
f 63//48 62//48 64//48 65//48
f 65//49 64//49 66//49 67//49
f 67//50 66//50 68//50 69//50
f 69//51 68//51 70//51 71//51
f 71//52 70//52 72//52 73//52
f 73//53 72//53 74//53 75//53
f 75//54 74//54 76//54 77//54
f 77//55 76//55 78//55 79//55
f 79//56 78//56 80//56 81//56
f 81//57 80//57 82//57 83//57
f 83//58 82//58 84//58 85//58
f 85//59 84//59 86//59 87//59
f 87//60 86//60 88//60 89//60
f 89//61 88//61 90//61 91//61
f 91//62 90//62 92//62 93//62
f 93//63 92//63 94//63 95//63
f 36//64 35//64 96//64 94//64 92//64 90//64 88//64 86//64 84//64 82//64 80//64 78//64 76//64 74//64 72//64 70//64 68//64 66//64 64//64 62//64 60//64 58//64 56//64 54//64 52//64 50//64 48//64 46//64 44//64 42//64 40//64 38//64
f 97//65 96//65 35//65 34//65
f 95//66 94//66 96//66 97//66
f 61//47 63//47 119//47 106//47
f 115//33 124//33 125//33 109//33 100//33 101//33 114//33 102//33 98//33 99//33 129//33 111//33 105//33 106//33 119//33 122//33 123//33 121//33 118//33 103//33 104//33 110//33 107//33 108//33 120//33 117//33 112//33 113//33 126//33 127//33 128//33 116//33
f 53//67 99//67 158//67 155//67
f 45//39 47//39 114//39 101//39
f 83//68 85//68 143//68 142//68
f 79//56 81//56 108//56 107//56
f 91//62 93//62 127//62 126//62
f 116//69 97//69 131//69 134//69
f 67//70 69//70 149//70 148//70
f 95//66 97//66 116//66 128//66
f 85//59 87//59 112//59 117//59
f 75//54 77//54 110//54 104//54
f 51//71 53//71 155//71 154//71
f 53//43 55//43 129//43 99//43
f 37//35 39//35 125//35 124//35
f 122//72 65//72 150//72 153//72
f 57//45 59//45 105//45 111//45
f 69//51 71//51 118//51 121//51
f 108//73 81//73 144//73 147//73
f 41//37 43//37 100//37 109//37
f 47//40 49//40 102//40 114//40
f 63//48 65//48 122//48 119//48
f 89//61 91//61 126//61 113//61
f 39//36 41//36 109//36 125//36
f 93//63 95//63 128//63 127//63
f 55//44 57//44 111//44 129//44
f 73//53 75//53 104//53 103//53
f 87//60 89//60 113//60 112//60
f 77//55 79//55 107//55 110//55
f 71//52 73//52 103//52 118//52
f 59//46 61//46 106//46 105//46
f 124//33 115//33 133//33 135//33
f 43//38 45//38 101//38 100//38
f 135//74 133//74 139//74 141//74
f 134//75 131//75 137//75 140//75
f 97//33 34//33 130//33 131//33
f 34//33 37//33 132//33 130//33
f 37//69 124//69 135//69 132//69
f 115//33 116//33 134//33 133//33
f 137//65 136//65 139//65 140//65
f 136//34 138//34 141//34 139//34
f 130//76 132//76 138//76 136//76
f 132//77 135//77 141//77 138//77
f 133//78 134//78 140//78 139//78
f 131//79 130//79 136//79 137//79
f 142//58 143//58 146//58 145//58
f 144//57 142//57 145//57 147//57
f 81//80 83//80 142//80 144//80
f 85//81 117//81 146//81 143//81
f 117//82 120//82 145//82 146//82
f 120//83 108//83 147//83 145//83
f 148//50 149//50 152//50 151//50
f 150//49 148//49 151//49 153//49
f 121//84 123//84 151//84 152//84
f 69//85 121//85 152//85 149//85
f 123//86 122//86 153//86 151//86
f 65//87 67//87 148//87 150//87
f 154//42 155//42 158//42 157//42
f 156//41 154//41 157//41 159//41
f 102//88 49//88 156//88 159//88
f 49//89 51//89 154//89 156//89
f 98//90 102//90 159//90 157//90
f 99//91 98//91 157//91 158//91
